<?xml version="1.0" standalone="no"?>
<!DOCTYPE svg PUBLIC "-//W3C//DTD SVG 20010904//EN"
 "http://www.w3.org/TR/2001/REC-SVG-20010904/DTD/svg10.dtd">
<svg version="1.0" xmlns="http://www.w3.org/2000/svg"
 width="921.000000pt" height="604.000000pt" viewBox="0 0 921.000000 604.000000"
 preserveAspectRatio="xMidYMid meet">

<g transform="translate(0.000000,604.000000) scale(0.100000,-0.100000)"
fill="#1f3835" stroke="none">
<path d="M2081 6014 c-12 -9 -31 -35 -42 -58 -10 -22 -23 -48 -28 -56 -34 -56
-103 -214 -110 -255 -6 -27 -17 -70 -26 -95 -24 -67 -46 -159 -50 -210 -2 -25
-8 -81 -14 -125 -5 -44 -12 -135 -15 -203 -6 -136 -17 -172 -74 -241 -124
-153 -195 -195 -492 -287 -264 -82 -309 -99 -390 -142 -47 -24 -97 -53 -112
-63 -14 -11 -30 -19 -34 -19 -10 0 -120 -94 -158 -134 -15 -17 -46 -50 -67
-73 -21 -22 -39 -44 -39 -47 0 -4 -9 -20 -20 -36 -11 -17 -29 -43 -40 -60 -11
-16 -33 -65 -49 -107 -16 -43 -48 -116 -71 -162 -38 -77 -47 -109 -66 -237 -9
-62 29 -128 108 -187 42 -31 165 -97 181 -97 7 0 46 -11 87 -25 41 -14 93 -27
115 -30 22 -2 51 -7 65 -11 112 -29 183 -38 415 -50 72 -4 146 -9 165 -11 43
-4 125 -3 165 3 17 2 77 6 135 9 213 10 446 32 469 44 16 9 109 28 166 34 17
2 36 6 41 10 10 6 103 24 169 32 87 12 115 15 170 20 33 4 105 13 160 21 156
24 216 32 270 38 28 4 61 8 75 11 14 3 43 7 65 10 100 11 129 16 159 29 18 8
53 17 77 21 24 3 58 10 74 15 17 5 48 11 70 14 45 5 117 22 320 78 200 54 213
58 280 84 34 13 76 26 93 29 18 3 41 10 50 15 49 26 315 130 335 130 7 0 51
16 97 36 47 20 119 47 160 61 48 17 91 40 119 65 24 21 62 43 83 50 23 7 53
27 71 48 18 21 43 43 57 50 46 24 62 48 55 83 -8 36 -50 103 -70 111 -12 4
-92 -26 -215 -82 -40 -18 -104 -39 -165 -55 -11 -3 -58 -19 -105 -35 -138 -48
-301 -98 -360 -112 -30 -6 -77 -18 -105 -26 -27 -8 -81 -23 -120 -33 -38 -11
-83 -22 -98 -25 -16 -3 -43 -9 -60 -14 -18 -6 -68 -17 -112 -27 -44 -9 -107
-23 -140 -31 -84 -21 -291 -62 -345 -69 -25 -3 -65 -8 -90 -11 -25 -3 -58 -9
-75 -14 -28 -8 -267 -43 -380 -55 -27 -3 -68 -8 -90 -11 -66 -8 -107 -13 -165
-19 -75 -8 -105 -12 -175 -24 -33 -5 -94 -15 -135 -21 -96 -13 -745 -21 -825
-10 -33 5 -94 11 -135 13 -78 5 -254 30 -328 47 -23 6 -55 10 -72 10 -31 0
-152 36 -262 78 -81 31 -138 74 -138 106 0 27 94 137 170 199 77 62 191 121
285 147 44 12 118 33 165 46 126 37 151 43 195 47 22 2 62 16 90 30 27 15 56
27 64 27 27 0 127 75 219 164 85 83 116 121 192 235 14 21 46 70 72 109 26 38
52 82 58 97 6 15 19 39 29 54 22 31 39 80 52 144 36 187 39 207 39 307 1 155
30 412 55 482 15 42 21 76 17 91 -14 50 -97 127 -136 127 -1 0 -12 -7 -25 -16z"/>
<path d="M6886 4798 c-90 -195 -164 -387 -193 -503 -28 -112 -32 -130 -48
-220 -9 -49 -20 -108 -25 -131 -18 -79 -39 -292 -45 -464 -7 -193 -11 -271
-20 -435 -11 -214 -16 -261 -30 -315 -7 -30 -21 -86 -31 -125 -15 -65 -52
-160 -75 -195 -5 -8 -18 -28 -28 -45 -31 -48 -99 -123 -173 -191 -13 -12 -86
-57 -163 -102 -185 -107 -263 -163 -338 -242 -96 -101 -134 -149 -178 -225
-90 -156 -156 -249 -255 -355 -172 -183 -254 -253 -395 -337 -187 -111 -323
-144 -431 -103 -78 29 -117 16 -118 -37 0 -30 41 -103 68 -122 13 -9 33 -24
44 -34 27 -25 65 -35 161 -42 65 -5 98 -2 157 15 41 11 88 22 103 25 47 7 248
128 357 214 143 113 299 275 385 399 27 40 57 72 66 72 8 0 44 -14 79 -31 56
-29 68 -31 124 -26 79 9 118 23 291 109 158 79 307 165 345 199 60 53 150 140
150 145 0 3 24 33 53 68 67 83 117 153 117 165 0 6 6 14 14 18 27 16 252 435
315 588 128 312 211 564 211 644 0 16 3 37 6 46 7 17 76 55 139 75 22 7 42 16
45 19 3 3 25 20 50 36 56 37 213 159 259 200 60 54 165 169 185 203 69 118 88
168 90 232 1 55 -3 70 -24 98 -27 36 -59 49 -85 34 -36 -19 -113 -104 -130
-141 -22 -49 -14 -107 15 -116 41 -13 24 -43 -89 -160 -108 -111 -398 -355
-423 -355 -7 0 -9 17 -4 53 4 28 9 97 12 152 3 55 10 114 15 130 6 17 14 109
20 205 16 306 27 384 63 488 8 23 13 48 10 55 -2 7 2 30 11 50 24 57 19 107
-14 159 -35 55 -58 70 -95 60 -22 -6 -39 -34 -111 -182 -47 -96 -96 -210 -110
-255 -63 -207 -76 -260 -79 -332 -2 -43 -9 -127 -15 -188 -11 -119 -16 -189
-31 -422 -5 -84 -13 -169 -18 -190 -5 -21 -15 -78 -22 -128 -7 -49 -19 -112
-27 -140 -29 -95 -145 -386 -174 -435 -5 -8 -14 -26 -20 -40 -6 -14 -17 -32
-24 -40 -8 -9 -21 -34 -28 -55 -15 -41 -72 -133 -149 -239 -24 -33 -49 -71
-57 -85 -14 -27 -37 -53 -144 -161 -95 -97 -128 -121 -292 -212 -217 -120
-365 -175 -365 -133 0 29 101 153 166 205 10 8 53 35 94 58 93 54 92 54 166
92 40 21 99 69 176 143 116 113 228 235 228 250 0 4 15 29 34 56 49 70 130
275 165 421 6 25 22 86 36 135 30 109 29 93 51 675 3 85 7 169 9 185 13 122
16 159 20 230 3 44 9 114 15 155 5 41 12 116 15 165 4 70 15 116 46 205 22 63
44 131 49 150 11 44 34 107 43 116 37 37 -73 144 -148 144 -21 0 -29 -9 -49
-52z"/>
<path d="M5765 4059 c-42 -12 -127 -96 -188 -185 -36 -53 -54 -157 -37 -209
25 -75 93 -122 187 -130 68 -6 133 12 214 61 31 18 80 39 110 45 30 6 68 22
86 35 51 38 140 206 145 274 2 30 -39 90 -62 90 -22 0 -46 -27 -65 -75 -9 -22
-22 -54 -30 -70 -8 -17 -18 -43 -24 -58 -12 -32 -30 -34 -54 -7 -33 39 -62 26
-107 -48 -36 -57 -111 -105 -177 -110 -32 -3 -59 0 -67 7 -23 19 -25 72 -5
123 18 46 25 57 82 123 15 18 27 42 27 54 0 12 5 32 11 43 16 30 -7 48 -46 37z"/>
<path d="M8628 3902 c-55 -57 -325 -311 -373 -352 -74 -63 -191 -167 -259
-232 -34 -31 -73 -68 -87 -81 -28 -25 -49 -58 -49 -76 0 -23 74 -3 114 30 6 5
38 27 71 48 33 22 78 56 100 77 22 20 56 48 75 63 18 14 46 37 61 51 14 14 76
70 138 124 142 126 276 267 289 303 23 67 -29 96 -80 45z"/>
<path d="M6147 3401 c-15 -10 -41 -30 -57 -44 -16 -15 -34 -27 -39 -27 -5 0
-11 -3 -13 -8 -1 -4 -25 -25 -53 -47 -27 -21 -54 -44 -60 -50 -5 -6 -26 -22
-45 -35 -31 -21 -136 -105 -181 -143 -9 -8 -56 -48 -105 -90 -49 -41 -97 -83
-106 -93 -10 -11 -33 -35 -51 -54 -57 -59 -54 -90 8 -90 30 0 128 51 161 85
10 9 42 35 73 58 31 22 68 52 82 66 24 24 54 48 179 147 93 74 113 91 182 154
85 78 116 131 97 166 -15 28 -34 29 -72 5z"/>
<path d="M4590 3131 c-44 -46 -122 -160 -151 -221 -67 -140 -69 -150 -24 -182
15 -12 49 -19 97 -22 75 -5 133 -15 179 -34 21 -8 30 -23 43 -72 21 -75 68
-134 100 -124 77 23 180 110 193 163 6 24 40 104 80 188 36 77 -6 185 -100
254 -106 78 -118 82 -255 87 l-123 4 -39 -41z"/>
<path d="M8163 2954 c-188 -68 -310 -146 -440 -283 -48 -51 -120 -221 -107
-254 2 -7 -6 -44 -20 -82 -30 -83 -26 -120 21 -175 58 -67 117 -91 283 -116
112 -16 185 -18 293 -9 54 5 67 4 67 -8 0 -15 -178 -200 -209 -217 -27 -14
-66 -13 -80 4 -6 7 -45 26 -87 41 -74 27 -75 27 -120 10 -35 -13 -78 -50 -184
-158 -156 -159 -164 -163 -243 -109 -25 18 -52 32 -60 32 -8 0 -31 7 -50 15
-68 28 -123 10 -281 -91 -58 -38 -123 -79 -144 -92 -56 -34 -274 -139 -303
-145 -14 -4 -47 -16 -75 -29 -27 -12 -53 -23 -59 -24 -5 -2 -49 -16 -96 -33
-136 -48 -221 -63 -325 -57 -50 3 -109 12 -130 19 -31 11 -74 13 -74 4 0 -1
-13 -39 -29 -85 -32 -89 -34 -146 -7 -186 15 -24 143 -96 170 -96 12 0 16 -7
14 -27 -3 -25 1 -28 32 -33 19 -3 64 0 100 7 36 7 94 15 130 17 36 2 79 11 95
19 17 9 79 30 139 47 60 18 141 48 180 67 98 49 302 171 316 188 7 8 17 15 22
15 5 0 39 20 76 45 87 59 112 59 210 -1 108 -66 120 -66 222 -4 47 29 113 80
148 113 34 34 79 68 99 75 20 7 45 20 55 29 26 23 130 30 147 9 29 -34 124 -9
200 53 24 20 77 61 116 91 40 30 90 75 110 100 21 25 40 47 44 50 3 3 29 34
56 69 28 35 75 92 106 125 31 34 78 85 105 114 40 45 124 104 124 88 0 -17
171 63 200 94 3 3 17 11 32 17 14 6 34 24 45 38 10 15 34 46 54 69 20 22 40
51 43 63 4 13 28 35 54 50 26 14 47 27 48 27 1 1 4 14 8 29 6 24 1 34 -33 67
-48 48 -70 54 -170 47 -118 -8 -225 -58 -397 -182 -27 -20 -45 -23 -164 -29
-86 -5 -215 -13 -310 -20 -40 -3 -205 18 -235 30 -36 15 -105 65 -105 77 1 22
272 208 322 220 14 4 33 18 42 32 13 20 25 25 55 25 22 0 41 -5 43 -12 2 -6
14 -12 27 -13 12 -1 33 -15 46 -31 28 -33 33 -16 8 27 -9 15 -15 31 -12 34 3
3 38 -10 78 -27 l71 -32 27 26 c20 20 27 39 31 80 3 46 1 56 -22 81 -14 15
-59 46 -100 68 -66 35 -82 40 -130 37 -31 -2 -82 -12 -113 -24z"/>
<path d="M4073 2902 c-49 -56 -103 -132 -103 -148 0 -6 -9 -21 -20 -34 -11
-13 -20 -27 -20 -31 0 -4 -16 -13 -35 -19 -19 -6 -35 -17 -35 -25 0 -7 -7 -19
-16 -26 -9 -7 -26 -36 -39 -64 -12 -27 -36 -68 -54 -90 -17 -22 -34 -44 -39
-50 -4 -5 -16 -30 -27 -55 -10 -25 -24 -52 -31 -60 -6 -8 -21 -35 -32 -60 -12
-25 -28 -56 -36 -70 -53 -89 -144 -312 -191 -471 -40 -135 -74 -339 -73 -441
0 -36 -2 -71 -6 -76 -3 -5 0 -48 6 -95 l11 -86 -28 -38 c-16 -21 -37 -46 -47
-56 -22 -22 -24 -67 -3 -67 9 0 38 18 66 40 28 22 54 40 59 40 4 0 20 -18 35
-40 15 -22 30 -40 34 -40 3 0 30 -18 60 -41 91 -69 193 -91 312 -69 30 6 68
13 84 16 50 8 229 101 314 162 43 31 112 87 153 124 40 37 95 83 122 102 28
19 54 42 58 50 10 18 56 40 112 55 35 9 40 8 58 -14 37 -47 146 -26 291 54
109 60 163 102 229 177 33 38 76 87 96 109 59 64 117 138 130 165 16 32 38 68
101 165 30 46 33 50 65 90 71 90 -10 300 -155 400 -33 24 -50 27 -131 31 -68
2 -113 -2 -168 -16 -137 -35 -164 -45 -242 -88 -42 -23 -81 -42 -85 -42 -5 0
-26 -18 -47 -40 -21 -22 -42 -40 -47 -40 -27 0 -231 -140 -372 -256 -10 -8
-42 -32 -70 -52 -29 -20 -56 -42 -62 -48 -5 -6 -41 -35 -80 -64 -38 -30 -113
-90 -165 -134 -115 -98 -128 -109 -160 -136 -14 -12 -52 -43 -85 -68 -33 -26
-73 -59 -90 -74 -47 -45 -68 -35 -78 37 -16 122 13 319 67 448 20 48 36 93 36
100 0 7 16 46 36 87 20 41 49 111 66 155 17 44 39 90 49 103 10 13 30 55 45
95 15 40 42 93 61 119 18 26 33 52 33 56 0 5 12 27 28 49 44 63 51 76 73 123
11 24 24 47 28 50 18 12 33 56 38 111 4 56 3 59 -19 59 -15 0 -38 -17 -65 -48z
m1259 -757 c22 -15 40 -37 47 -58 10 -30 9 -40 -14 -83 -14 -27 -39 -66 -55
-86 -17 -20 -30 -41 -30 -46 0 -19 -92 -128 -150 -177 -32 -28 -87 -66 -122
-85 -54 -29 -72 -33 -123 -32 -168 6 -212 6 -237 0 -41 -10 -151 -66 -179 -91
-73 -66 -320 -255 -354 -271 -56 -26 -147 -57 -152 -52 -3 2 -29 -4 -59 -14
-35 -12 -67 -17 -87 -13 -60 12 -127 49 -127 70 0 14 79 86 129 117 23 15 83
63 134 107 50 45 112 99 137 120 25 22 86 71 135 110 50 39 106 83 125 99 246
198 364 279 462 315 40 14 88 33 106 41 18 8 42 14 53 14 11 0 29 4 39 10 10
5 44 12 76 16 33 3 60 7 62 9 2 1 35 3 75 3 60 1 78 -3 109 -23z"/>
<path d="M1434 2878 c-11 -12 -31 -48 -43 -78 -13 -30 -32 -73 -41 -95 -9 -22
-28 -74 -43 -115 -131 -385 -163 -547 -183 -915 -3 -55 -9 -138 -14 -185 -5
-47 -12 -114 -15 -150 -14 -138 -49 -205 -184 -343 -156 -161 -307 -234 -335
-162 -21 55 3 106 111 240 16 20 65 100 117 190 60 105 155 383 155 451 0 11
6 58 13 105 8 47 13 104 12 127 -2 43 -36 102 -58 102 -8 0 -33 9 -58 20 -24
10 -54 17 -66 13 -30 -7 -57 -73 -88 -208 -14 -60 -30 -128 -35 -150 -6 -22
-12 -53 -14 -70 -13 -147 -123 -372 -202 -416 -13 -7 -23 -17 -23 -23 0 -13
-88 -106 -142 -153 -62 -52 -160 -118 -211 -142 -68 -33 -81 -56 -72 -133 5
-35 9 -74 11 -88 1 -14 15 -36 30 -49 28 -23 50 -24 191 -11 2 0 20 15 40 33
62 55 83 53 83 -4 0 -32 50 -125 85 -159 17 -17 59 -42 91 -55 34 -13 63 -32
69 -44 12 -26 16 -26 57 -2 18 11 48 23 67 26 19 3 43 11 55 17 45 24 132 84
151 105 42 45 131 147 145 167 71 99 229 393 265 490 42 117 44 118 95 62 23
-25 47 -46 53 -46 6 0 29 -9 51 -19 123 -57 228 -70 327 -41 39 12 79 23 88
25 9 1 34 6 56 10 46 8 245 111 300 155 21 17 41 30 44 30 3 0 26 18 51 41
l45 41 150 -6 c82 -4 166 -9 185 -11 168 -18 453 147 510 295 7 19 16 40 20
45 6 9 21 63 34 124 11 52 -28 200 -70 263 -30 47 -162 152 -229 184 -98 45
-262 101 -400 136 -33 9 -94 25 -135 36 -41 12 -111 28 -155 37 -127 26 -208
53 -230 77 -11 13 -30 55 -43 93 -19 63 -27 75 -72 108 -89 66 -116 48 -126
-87 -6 -73 -4 -95 16 -153 25 -77 45 -102 107 -139 24 -13 43 -29 43 -33 0 -5
-33 -31 -73 -59 -130 -90 -247 -211 -247 -256 0 -9 -6 -27 -14 -39 -12 -20
-25 -66 -32 -122 -3 -17 -14 -222 -14 -247 0 -5 -3 -8 -8 -8 -13 0 -119 103
-138 135 -10 17 -26 36 -35 42 -34 25 -41 114 -25 306 10 116 21 166 68 295
33 92 42 132 43 187 1 39 4 88 9 110 7 38 5 42 -34 74 -54 44 -107 52 -136 19z
m1461 -699 c24 -17 42 -35 40 -39 -7 -11 26 -35 77 -56 56 -23 85 -71 94 -159
9 -84 -12 -112 -96 -131 -26 -6 -203 -6 -252 -1 -16 2 -39 4 -52 5 -18 2 -25
9 -29 35 -3 18 -17 50 -31 71 -14 21 -23 43 -20 48 14 22 5 101 -14 121 -33
37 -35 56 -6 67 14 6 42 10 62 10 28 1 47 10 77 36 49 43 83 41 150 -7z m-494
-31 c38 -18 69 -39 69 -46 0 -7 -15 -34 -33 -60 -18 -26 -46 -80 -62 -120 -33
-85 -78 -132 -128 -133 -105 -3 -145 4 -212 34 -70 31 -115 67 -115 91 0 49
34 115 87 170 74 76 106 87 255 94 62 3 78 0 139 -30z"/>
<path d="M561 2851 c-13 -24 -3 -88 20 -126 28 -47 33 -105 19 -213 -12 -96
-68 -268 -109 -337 -33 -56 -61 -145 -55 -171 9 -36 34 -30 91 24 49 46 73 83
108 162 8 19 26 57 40 83 71 133 93 376 46 497 -14 37 -31 62 -54 78 -41 27
-92 29 -106 3z"/>
<path d="M2279 952 c-31 -16 -143 -97 -175 -127 -52 -48 -180 -155 -210 -176
-29 -19 -111 -89 -143 -120 -14 -14 -71 -60 -126 -102 -55 -42 -114 -89 -132
-104 -17 -16 -55 -46 -84 -68 -47 -36 -90 -72 -169 -142 -13 -13 -28 -23 -32
-23 -5 0 -8 -6 -8 -14 0 -8 -7 -16 -15 -20 -23 -8 -19 -46 5 -46 19 0 81 30
110 54 8 7 37 23 64 35 27 13 73 41 102 64 29 23 81 62 114 87 34 25 69 52 78
60 9 8 35 27 58 43 22 15 49 35 60 45 10 9 37 30 59 47 22 16 49 37 60 46 56
47 291 248 314 269 9 8 43 37 75 64 66 56 83 89 65 123 -15 28 -24 28 -70 5z"/>
<path d="M7112 581 c-119 -126 -159 -191 -179 -293 -4 -23 0 -30 28 -47 19
-12 47 -21 62 -21 58 0 179 -58 238 -113 59 -57 84 -69 168 -84 50 -9 55 -8
85 16 51 42 66 62 76 105 5 23 21 75 35 116 14 42 25 81 25 87 0 23 -74 139
-116 181 -60 62 -171 103 -284 107 l-85 3 -53 -57z"/>
</g>
</svg>
