<svg width="1440" height="900" viewBox="0 0 1440 900" fill="none" xmlns="http://www.w3.org/2000/svg">
<path fill-rule="evenodd" clip-rule="evenodd" d="M-12.0078 1.00098H121.992C125.858 1.00098 128.992 4.13498 128.992 8.00098V142.001C128.992 145.867 125.858 149.001 121.992 149.001H-12.0078C-15.8738 149.001 -19.0078 145.867 -19.0078 142.001V8.00098C-19.0078 4.13498 -15.8738 1.00098 -12.0078 1.00098ZM-20.0078 8.00098C-20.0078 3.5827 -16.4261 0.000976562 -12.0078 0.000976562H121.992C126.41 0.000976562 129.992 3.5827 129.992 8.00098C129.992 3.5827 133.574 0.000976562 137.992 0.000976562H271.992C276.41 0.000976562 279.992 3.5827 279.992 8.00098C279.992 3.5827 283.574 0.000976562 287.992 0.000976562H421.992C426.41 0.000976562 429.992 3.5827 429.992 8.00098C429.992 3.5827 433.574 0.000976562 437.992 0.000976562H571.992C576.41 0.000976562 579.992 3.5827 579.992 8.00098C579.992 3.5827 583.574 0.000976562 587.992 0.000976562H721.992C726.41 0.000976562 729.992 3.5827 729.992 8.00098C729.992 3.5827 733.574 0.000976562 737.992 0.000976562H871.992C876.41 0.000976562 879.992 3.5827 879.992 8.00098C879.992 3.5827 883.574 0.000976562 887.992 0.000976562H1021.99C1026.41 0.000976562 1029.99 3.5827 1029.99 8.00098C1029.99 3.5827 1033.57 0.000976562 1037.99 0.000976562H1171.99C1176.41 0.000976562 1179.99 3.5827 1179.99 8.00098C1179.99 3.5827 1183.57 0.000976562 1187.99 0.000976562H1321.99C1326.41 0.000976562 1329.99 3.5827 1329.99 8.00098C1329.99 3.5827 1333.57 0.000976562 1337.99 0.000976562H1471.99C1476.41 0.000976562 1479.99 3.5827 1479.99 8.00098V142.001C1479.99 146.419 1476.41 150.001 1471.99 150.001C1476.41 150.001 1479.99 153.583 1479.99 158.001V292.001C1479.99 296.419 1476.41 300.001 1471.99 300.001C1476.41 300.001 1479.99 303.583 1479.99 308.001V442.001C1479.99 446.419 1476.41 450.001 1471.99 450.001C1476.41 450.001 1479.99 453.583 1479.99 458.001V592.001C1479.99 596.419 1476.41 600.001 1471.99 600.001C1476.41 600.001 1479.99 603.583 1479.99 608.001V742.001C1479.99 746.419 1476.41 750.001 1471.99 750.001C1476.41 750.001 1479.99 753.583 1479.99 758.001V892.001C1479.99 896.419 1476.41 900.001 1471.99 900.001H1337.99C1333.57 900.001 1329.99 896.419 1329.99 892.001C1329.99 896.419 1326.41 900.001 1321.99 900.001H1187.99C1183.57 900.001 1179.99 896.419 1179.99 892.001C1179.99 896.419 1176.41 900.001 1171.99 900.001H1037.99C1033.57 900.001 1029.99 896.419 1029.99 892.001C1029.99 896.419 1026.41 900.001 1021.99 900.001H887.992C883.574 900.001 879.992 896.419 879.992 892.001C879.992 896.419 876.41 900.001 871.992 900.001H737.992C733.574 900.001 729.992 896.419 729.992 892.001C729.992 896.419 726.41 900.001 721.992 900.001H587.992C583.574 900.001 579.992 896.419 579.992 892.001C579.992 896.419 576.41 900.001 571.992 900.001H437.992C433.574 900.001 429.992 896.419 429.992 892.001C429.992 896.419 426.41 900.001 421.992 900.001H287.992C283.574 900.001 279.992 896.419 279.992 892.001C279.992 896.419 276.41 900.001 271.992 900.001H137.992C133.574 900.001 129.992 896.419 129.992 892.001C129.992 896.419 126.41 900.001 121.992 900.001H-12.0078C-16.4261 900.001 -20.0078 896.419 -20.0078 892.001V758.001C-20.0078 753.583 -16.4261 750.001 -12.0078 750.001C-16.4261 750.001 -20.0078 746.419 -20.0078 742.001V608.001C-20.0078 603.583 -16.4261 600.001 -12.0078 600.001C-16.4261 600.001 -20.0078 596.419 -20.0078 592.001V458.001C-20.0078 453.583 -16.4261 450.001 -12.0078 450.001C-16.4261 450.001 -20.0078 446.419 -20.0078 442.001V308.001C-20.0078 303.583 -16.4261 300.001 -12.0078 300.001C-16.4261 300.001 -20.0078 296.419 -20.0078 292.001V158.001C-20.0078 153.583 -16.4261 150.001 -12.0078 150.001C-16.4261 150.001 -20.0078 146.419 -20.0078 142.001V8.00098ZM1337.99 750.001C1333.57 750.001 1329.99 746.419 1329.99 742.001C1329.99 746.419 1326.41 750.001 1321.99 750.001C1326.41 750.001 1329.99 753.583 1329.99 758.001C1329.99 753.583 1333.57 750.001 1337.99 750.001ZM1187.99 750.001C1183.57 750.001 1179.99 753.583 1179.99 758.001C1179.99 753.583 1176.41 750.001 1171.99 750.001C1176.41 750.001 1179.99 746.419 1179.99 742.001C1179.99 746.419 1183.57 750.001 1187.99 750.001ZM1037.99 750.001C1033.57 750.001 1029.99 746.419 1029.99 742.001C1029.99 746.419 1026.41 750.001 1021.99 750.001C1026.41 750.001 1029.99 753.583 1029.99 758.001C1029.99 753.583 1033.57 750.001 1037.99 750.001ZM887.992 750.001C883.574 750.001 879.992 753.583 879.992 758.001C879.992 753.583 876.41 750.001 871.992 750.001C876.41 750.001 879.992 746.419 879.992 742.001C879.992 746.419 883.574 750.001 887.992 750.001ZM737.992 750.001C733.574 750.001 729.992 746.419 729.992 742.001C729.992 746.419 726.41 750.001 721.992 750.001C726.41 750.001 729.992 753.583 729.992 758.001C729.992 753.583 733.574 750.001 737.992 750.001ZM587.992 750.001C583.574 750.001 579.992 753.583 579.992 758.001C579.992 753.583 576.41 750.001 571.992 750.001C576.41 750.001 579.992 746.419 579.992 742.001C579.992 746.419 583.574 750.001 587.992 750.001ZM437.992 750.001C433.574 750.001 429.992 746.419 429.992 742.001C429.992 746.419 426.41 750.001 421.992 750.001C426.41 750.001 429.992 753.583 429.992 758.001C429.992 753.583 433.574 750.001 437.992 750.001ZM287.992 750.001C283.574 750.001 279.992 753.583 279.992 758.001C279.992 753.583 276.41 750.001 271.992 750.001C276.41 750.001 279.992 746.419 279.992 742.001C279.992 746.419 283.574 750.001 287.992 750.001ZM137.992 750.001C133.574 750.001 129.992 746.419 129.992 742.001C129.992 746.419 126.41 750.001 121.992 750.001C126.41 750.001 129.992 753.583 129.992 758.001C129.992 753.583 133.574 750.001 137.992 750.001ZM1337.99 600.001C1333.57 600.001 1329.99 596.419 1329.99 592.001C1329.99 596.419 1326.41 600.001 1321.99 600.001C1326.41 600.001 1329.99 603.583 1329.99 608.001C1329.99 603.583 1333.57 600.001 1337.99 600.001ZM1187.99 600.001C1183.57 600.001 1179.99 603.583 1179.99 608.001C1179.99 603.583 1176.41 600.001 1171.99 600.001C1176.41 600.001 1179.99 596.419 1179.99 592.001C1179.99 596.419 1183.57 600.001 1187.99 600.001ZM1037.99 600.001C1033.57 600.001 1029.99 596.419 1029.99 592.001C1029.99 596.419 1026.41 600.001 1021.99 600.001C1026.41 600.001 1029.99 603.583 1029.99 608.001C1029.99 603.583 1033.57 600.001 1037.99 600.001ZM887.992 600.001C883.574 600.001 879.992 603.583 879.992 608.001C879.992 603.583 876.41 600.001 871.992 600.001C876.41 600.001 879.992 596.419 879.992 592.001C879.992 596.419 883.574 600.001 887.992 600.001ZM737.992 600.001C733.574 600.001 729.992 596.419 729.992 592.001C729.992 596.419 726.41 600.001 721.992 600.001C726.41 600.001 729.992 603.583 729.992 608.001C729.992 603.583 733.574 600.001 737.992 600.001ZM587.992 600.001C583.574 600.001 579.992 603.583 579.992 608.001C579.992 603.583 576.41 600.001 571.992 600.001C576.41 600.001 579.992 596.419 579.992 592.001C579.992 596.419 583.574 600.001 587.992 600.001ZM437.992 600.001C433.574 600.001 429.992 596.419 429.992 592.001C429.992 596.419 426.41 600.001 421.992 600.001C426.41 600.001 429.992 603.583 429.992 608.001C429.992 603.583 433.574 600.001 437.992 600.001ZM287.992 600.001C283.574 600.001 279.992 603.583 279.992 608.001C279.992 603.583 276.41 600.001 271.992 600.001C276.41 600.001 279.992 596.419 279.992 592.001C279.992 596.419 283.574 600.001 287.992 600.001ZM137.992 600.001C133.574 600.001 129.992 596.419 129.992 592.001C129.992 596.419 126.41 600.001 121.992 600.001C126.41 600.001 129.992 603.583 129.992 608.001C129.992 603.583 133.574 600.001 137.992 600.001ZM1337.99 450.001C1333.57 450.001 1329.99 446.419 1329.99 442.001C1329.99 446.419 1326.41 450.001 1321.99 450.001C1326.41 450.001 1329.99 453.583 1329.99 458.001C1329.99 453.583 1333.57 450.001 1337.99 450.001ZM1187.99 450.001C1183.57 450.001 1179.99 453.583 1179.99 458.001C1179.99 453.583 1176.41 450.001 1171.99 450.001C1176.41 450.001 1179.99 446.419 1179.99 442.001C1179.99 446.419 1183.57 450.001 1187.99 450.001ZM1037.99 450.001C1033.57 450.001 1029.99 446.419 1029.99 442.001C1029.99 446.419 1026.41 450.001 1021.99 450.001C1026.41 450.001 1029.99 453.583 1029.99 458.001C1029.99 453.583 1033.57 450.001 1037.99 450.001ZM887.992 450.001C883.574 450.001 879.992 453.583 879.992 458.001C879.992 453.583 876.41 450.001 871.992 450.001C876.41 450.001 879.992 446.419 879.992 442.001C879.992 446.419 883.574 450.001 887.992 450.001ZM737.992 450.001C733.574 450.001 729.992 446.419 729.992 442.001C729.992 446.419 726.41 450.001 721.992 450.001C726.41 450.001 729.992 453.583 729.992 458.001C729.992 453.583 733.574 450.001 737.992 450.001ZM587.992 450.001C583.574 450.001 579.992 453.583 579.992 458.001C579.992 453.583 576.41 450.001 571.992 450.001C576.41 450.001 579.992 446.419 579.992 442.001C579.992 446.419 583.574 450.001 587.992 450.001ZM437.992 450.001C433.574 450.001 429.992 446.419 429.992 442.001C429.992 446.419 426.41 450.001 421.992 450.001C426.41 450.001 429.992 453.583 429.992 458.001C429.992 453.583 433.574 450.001 437.992 450.001ZM287.992 450.001C283.574 450.001 279.992 453.583 279.992 458.001C279.992 453.583 276.41 450.001 271.992 450.001C276.41 450.001 279.992 446.419 279.992 442.001C279.992 446.419 283.574 450.001 287.992 450.001ZM137.992 450.001C133.574 450.001 129.992 446.419 129.992 442.001C129.992 446.419 126.41 450.001 121.992 450.001C126.41 450.001 129.992 453.583 129.992 458.001C129.992 453.583 133.574 450.001 137.992 450.001ZM1337.99 300.001C1333.57 300.001 1329.99 296.419 1329.99 292.001C1329.99 296.419 1326.41 300.001 1321.99 300.001C1326.41 300.001 1329.99 303.583 1329.99 308.001C1329.99 303.583 1333.57 300.001 1337.99 300.001ZM1187.99 300.001C1183.57 300.001 1179.99 303.583 1179.99 308.001C1179.99 303.583 1176.41 300.001 1171.99 300.001C1176.41 300.001 1179.99 296.419 1179.99 292.001C1179.99 296.419 1183.57 300.001 1187.99 300.001ZM1037.99 300.001C1033.57 300.001 1029.99 296.419 1029.99 292.001C1029.99 296.419 1026.41 300.001 1021.99 300.001C1026.41 300.001 1029.99 303.583 1029.99 308.001C1029.99 303.583 1033.57 300.001 1037.99 300.001ZM887.992 300.001C883.574 300.001 879.992 303.583 879.992 308.001C879.992 303.583 876.41 300.001 871.992 300.001C876.41 300.001 879.992 296.419 879.992 292.001C879.992 296.419 883.574 300.001 887.992 300.001ZM737.992 300.001C733.574 300.001 729.992 296.419 729.992 292.001C729.992 296.419 726.41 300.001 721.992 300.001C726.41 300.001 729.992 303.583 729.992 308.001C729.992 303.583 733.574 300.001 737.992 300.001ZM587.992 300.001C583.574 300.001 579.992 303.583 579.992 308.001C579.992 303.583 576.41 300.001 571.992 300.001C576.41 300.001 579.992 296.419 579.992 292.001C579.992 296.419 583.574 300.001 587.992 300.001ZM437.992 300.001C433.574 300.001 429.992 296.419 429.992 292.001C429.992 296.419 426.41 300.001 421.992 300.001C426.41 300.001 429.992 303.583 429.992 308.001C429.992 303.583 433.574 300.001 437.992 300.001ZM287.992 300.001C283.574 300.001 279.992 303.583 279.992 308.001C279.992 303.583 276.41 300.001 271.992 300.001C276.41 300.001 279.992 296.419 279.992 292.001C279.992 296.419 283.574 300.001 287.992 300.001ZM137.992 300.001C133.574 300.001 129.992 296.419 129.992 292.001C129.992 296.419 126.41 300.001 121.992 300.001C126.41 300.001 129.992 303.583 129.992 308.001C129.992 303.583 133.574 300.001 137.992 300.001ZM1337.99 150.001C1333.57 150.001 1329.99 146.419 1329.99 142.001C1329.99 146.419 1326.41 150.001 1321.99 150.001C1326.41 150.001 1329.99 153.583 1329.99 158.001C1329.99 153.583 1333.57 150.001 1337.99 150.001ZM1187.99 150.001C1183.57 150.001 1179.99 153.583 1179.99 158.001C1179.99 153.583 1176.41 150.001 1171.99 150.001C1176.41 150.001 1179.99 146.419 1179.99 142.001C1179.99 146.419 1183.57 150.001 1187.99 150.001ZM1037.99 150.001C1033.57 150.001 1029.99 146.419 1029.99 142.001C1029.99 146.419 1026.41 150.001 1021.99 150.001C1026.41 150.001 1029.99 153.583 1029.99 158.001C1029.99 153.583 1033.57 150.001 1037.99 150.001ZM887.992 150.001C883.574 150.001 879.992 153.583 879.992 158.001C879.992 153.583 876.41 150.001 871.992 150.001C876.41 150.001 879.992 146.419 879.992 142.001C879.992 146.419 883.574 150.001 887.992 150.001ZM737.992 150.001C733.574 150.001 729.992 146.419 729.992 142.001C729.992 146.419 726.41 150.001 721.992 150.001C726.41 150.001 729.992 153.583 729.992 158.001C729.992 153.583 733.574 150.001 737.992 150.001ZM587.992 150.001C583.574 150.001 579.992 153.583 579.992 158.001C579.992 153.583 576.41 150.001 571.992 150.001C576.41 150.001 579.992 146.419 579.992 142.001C579.992 146.419 583.574 150.001 587.992 150.001ZM437.992 150.001C433.574 150.001 429.992 146.419 429.992 142.001C429.992 146.419 426.41 150.001 421.992 150.001C426.41 150.001 429.992 153.583 429.992 158.001C429.992 153.583 433.574 150.001 437.992 150.001ZM287.992 150.001C283.574 150.001 279.992 153.583 279.992 158.001C279.992 153.583 276.41 150.001 271.992 150.001C276.41 150.001 279.992 146.419 279.992 142.001C279.992 146.419 283.574 150.001 287.992 150.001ZM137.992 150.001C133.574 150.001 129.992 146.419 129.992 142.001C129.992 146.419 126.41 150.001 121.992 150.001C126.41 150.001 129.992 153.583 129.992 158.001C129.992 153.583 133.574 150.001 137.992 150.001ZM137.992 1.00098H271.992C275.858 1.00098 278.992 4.13498 278.992 8.00098V142.001C278.992 145.867 275.858 149.001 271.992 149.001H137.992C134.126 149.001 130.992 145.867 130.992 142.001V8.00098C130.992 4.13498 134.126 1.00098 137.992 1.00098ZM421.992 1.00098H287.992C284.126 1.00098 280.992 4.13498 280.992 8.00098V142.001C280.992 145.867 284.126 149.001 287.992 149.001H421.992C425.858 149.001 428.992 145.867 428.992 142.001V8.00098C428.992 4.13498 425.858 1.00098 421.992 1.00098ZM437.992 1.00098H571.992C575.858 1.00098 578.992 4.13498 578.992 8.00098V142.001C578.992 145.867 575.858 149.001 571.992 149.001H437.992C434.126 149.001 430.992 145.867 430.992 142.001V8.00098C430.992 4.13498 434.126 1.00098 437.992 1.00098ZM721.992 1.00098H587.992C584.126 1.00098 580.992 4.13498 580.992 8.00098V142.001C580.992 145.867 584.126 149.001 587.992 149.001H721.992C725.858 149.001 728.992 145.867 728.992 142.001V8.00098C728.992 4.13498 725.858 1.00098 721.992 1.00098ZM737.992 1.00098H871.992C875.858 1.00098 878.992 4.13498 878.992 8.00098V142.001C878.992 145.867 875.858 149.001 871.992 149.001H737.992C734.126 149.001 730.992 145.867 730.992 142.001V8.00098C730.992 4.13498 734.126 1.00098 737.992 1.00098ZM1021.99 1.00098H887.992C884.126 1.00098 880.992 4.13498 880.992 8.00098V142.001C880.992 145.867 884.126 149.001 887.992 149.001H1021.99C1025.86 149.001 1028.99 145.867 1028.99 142.001V8.00098C1028.99 4.13498 1025.86 1.00098 1021.99 1.00098ZM1037.99 1.00098H1171.99C1175.86 1.00098 1178.99 4.13498 1178.99 8.00098V142.001C1178.99 145.867 1175.86 149.001 1171.99 149.001H1037.99C1034.13 149.001 1030.99 145.867 1030.99 142.001V8.00098C1030.99 4.13498 1034.13 1.00098 1037.99 1.00098ZM1321.99 1.00098H1187.99C1184.13 1.00098 1180.99 4.13498 1180.99 8.00098V142.001C1180.99 145.867 1184.13 149.001 1187.99 149.001H1321.99C1325.86 149.001 1328.99 145.867 1328.99 142.001V8.00098C1328.99 4.13498 1325.86 1.00098 1321.99 1.00098ZM1337.99 1.00098H1471.99C1475.86 1.00098 1478.99 4.13498 1478.99 8.00098V142.001C1478.99 145.867 1475.86 149.001 1471.99 149.001H1337.99C1334.13 149.001 1330.99 145.867 1330.99 142.001V8.00098C1330.99 4.13498 1334.13 1.00098 1337.99 1.00098ZM121.992 151.001H-12.0078C-15.8738 151.001 -19.0078 154.135 -19.0078 158.001V292.001C-19.0078 295.867 -15.8738 299.001 -12.0078 299.001H121.992C125.858 299.001 128.992 295.867 128.992 292.001V158.001C128.992 154.135 125.858 151.001 121.992 151.001ZM137.992 151.001H271.992C275.858 151.001 278.992 154.135 278.992 158.001V292.001C278.992 295.867 275.858 299.001 271.992 299.001H137.992C134.126 299.001 130.992 295.867 130.992 292.001V158.001C130.992 154.135 134.126 151.001 137.992 151.001ZM421.992 151.001H287.992C284.126 151.001 280.992 154.135 280.992 158.001V292.001C280.992 295.867 284.126 299.001 287.992 299.001H421.992C425.858 299.001 428.992 295.867 428.992 292.001V158.001C428.992 154.135 425.858 151.001 421.992 151.001ZM437.992 151.001H571.992C575.858 151.001 578.992 154.135 578.992 158.001V292.001C578.992 295.867 575.858 299.001 571.992 299.001H437.992C434.126 299.001 430.992 295.867 430.992 292.001V158.001C430.992 154.135 434.126 151.001 437.992 151.001ZM721.992 151.001H587.992C584.126 151.001 580.992 154.135 580.992 158.001V292.001C580.992 295.867 584.126 299.001 587.992 299.001H721.992C725.858 299.001 728.992 295.867 728.992 292.001V158.001C728.992 154.135 725.858 151.001 721.992 151.001ZM737.992 151.001H871.992C875.858 151.001 878.992 154.135 878.992 158.001V292.001C878.992 295.867 875.858 299.001 871.992 299.001H737.992C734.126 299.001 730.992 295.867 730.992 292.001V158.001C730.992 154.135 734.126 151.001 737.992 151.001ZM1021.99 151.001H887.992C884.126 151.001 880.992 154.135 880.992 158.001V292.001C880.992 295.867 884.126 299.001 887.992 299.001H1021.99C1025.86 299.001 1028.99 295.867 1028.99 292.001V158.001C1028.99 154.135 1025.86 151.001 1021.99 151.001ZM1037.99 151.001H1171.99C1175.86 151.001 1178.99 154.135 1178.99 158.001V292.001C1178.99 295.867 1175.86 299.001 1171.99 299.001H1037.99C1034.13 299.001 1030.99 295.867 1030.99 292.001V158.001C1030.99 154.135 1034.13 151.001 1037.99 151.001ZM1321.99 151.001H1187.99C1184.13 151.001 1180.99 154.135 1180.99 158.001V292.001C1180.99 295.867 1184.13 299.001 1187.99 299.001H1321.99C1325.86 299.001 1328.99 295.867 1328.99 292.001V158.001C1328.99 154.135 1325.86 151.001 1321.99 151.001ZM1337.99 151.001H1471.99C1475.86 151.001 1478.99 154.135 1478.99 158.001V292.001C1478.99 295.867 1475.86 299.001 1471.99 299.001H1337.99C1334.13 299.001 1330.99 295.867 1330.99 292.001V158.001C1330.99 154.135 1334.13 151.001 1337.99 151.001ZM121.992 301.001H-12.0078C-15.8738 301.001 -19.0078 304.135 -19.0078 308.001V442.001C-19.0078 445.867 -15.8738 449.001 -12.0078 449.001H121.992C125.858 449.001 128.992 445.867 128.992 442.001V308.001C128.992 304.135 125.858 301.001 121.992 301.001ZM137.992 301.001H271.992C275.858 301.001 278.992 304.135 278.992 308.001V442.001C278.992 445.867 275.858 449.001 271.992 449.001H137.992C134.126 449.001 130.992 445.867 130.992 442.001V308.001C130.992 304.135 134.126 301.001 137.992 301.001ZM421.992 301.001H287.992C284.126 301.001 280.992 304.135 280.992 308.001V442.001C280.992 445.867 284.126 449.001 287.992 449.001H421.992C425.858 449.001 428.992 445.867 428.992 442.001V308.001C428.992 304.135 425.858 301.001 421.992 301.001ZM437.992 301.001H571.992C575.858 301.001 578.992 304.135 578.992 308.001V442.001C578.992 445.867 575.858 449.001 571.992 449.001H437.992C434.126 449.001 430.992 445.867 430.992 442.001V308.001C430.992 304.135 434.126 301.001 437.992 301.001ZM721.992 301.001H587.992C584.126 301.001 580.992 304.135 580.992 308.001V442.001C580.992 445.867 584.126 449.001 587.992 449.001H721.992C725.858 449.001 728.992 445.867 728.992 442.001V308.001C728.992 304.135 725.858 301.001 721.992 301.001ZM737.992 301.001H871.992C875.858 301.001 878.992 304.135 878.992 308.001V442.001C878.992 445.867 875.858 449.001 871.992 449.001H737.992C734.126 449.001 730.992 445.867 730.992 442.001V308.001C730.992 304.135 734.126 301.001 737.992 301.001ZM1021.99 301.001H887.992C884.126 301.001 880.992 304.135 880.992 308.001V442.001C880.992 445.867 884.126 449.001 887.992 449.001H1021.99C1025.86 449.001 1028.99 445.867 1028.99 442.001V308.001C1028.99 304.135 1025.86 301.001 1021.99 301.001ZM1037.99 301.001H1171.99C1175.86 301.001 1178.99 304.135 1178.99 308.001V442.001C1178.99 445.867 1175.86 449.001 1171.99 449.001H1037.99C1034.13 449.001 1030.99 445.867 1030.99 442.001V308.001C1030.99 304.135 1034.13 301.001 1037.99 301.001ZM1321.99 301.001H1187.99C1184.13 301.001 1180.99 304.135 1180.99 308.001V442.001C1180.99 445.867 1184.13 449.001 1187.99 449.001H1321.99C1325.86 449.001 1328.99 445.867 1328.99 442.001V308.001C1328.99 304.135 1325.86 301.001 1321.99 301.001ZM1337.99 301.001H1471.99C1475.86 301.001 1478.99 304.135 1478.99 308.001V442.001C1478.99 445.867 1475.86 449.001 1471.99 449.001H1337.99C1334.13 449.001 1330.99 445.867 1330.99 442.001V308.001C1330.99 304.135 1334.13 301.001 1337.99 301.001ZM121.992 451.001H-12.0078C-15.8738 451.001 -19.0078 454.135 -19.0078 458.001V592.001C-19.0078 595.867 -15.8738 599.001 -12.0078 599.001H121.992C125.858 599.001 128.992 595.867 128.992 592.001V458.001C128.992 454.135 125.858 451.001 121.992 451.001ZM137.992 451.001H271.992C275.858 451.001 278.992 454.135 278.992 458.001V592.001C278.992 595.867 275.858 599.001 271.992 599.001H137.992C134.126 599.001 130.992 595.867 130.992 592.001V458.001C130.992 454.135 134.126 451.001 137.992 451.001ZM421.992 451.001H287.992C284.126 451.001 280.992 454.135 280.992 458.001V592.001C280.992 595.867 284.126 599.001 287.992 599.001H421.992C425.858 599.001 428.992 595.867 428.992 592.001V458.001C428.992 454.135 425.858 451.001 421.992 451.001ZM437.992 451.001H571.992C575.858 451.001 578.992 454.135 578.992 458.001V592.001C578.992 595.867 575.858 599.001 571.992 599.001H437.992C434.126 599.001 430.992 595.867 430.992 592.001V458.001C430.992 454.135 434.126 451.001 437.992 451.001ZM721.992 451.001H587.992C584.126 451.001 580.992 454.135 580.992 458.001V592.001C580.992 595.867 584.126 599.001 587.992 599.001H721.992C725.858 599.001 728.992 595.867 728.992 592.001V458.001C728.992 454.135 725.858 451.001 721.992 451.001ZM737.992 451.001H871.992C875.858 451.001 878.992 454.135 878.992 458.001V592.001C878.992 595.867 875.858 599.001 871.992 599.001H737.992C734.126 599.001 730.992 595.867 730.992 592.001V458.001C730.992 454.135 734.126 451.001 737.992 451.001ZM1021.99 451.001H887.992C884.126 451.001 880.992 454.135 880.992 458.001V592.001C880.992 595.867 884.126 599.001 887.992 599.001H1021.99C1025.86 599.001 1028.99 595.867 1028.99 592.001V458.001C1028.99 454.135 1025.86 451.001 1021.99 451.001ZM1037.99 451.001H1171.99C1175.86 451.001 1178.99 454.135 1178.99 458.001V592.001C1178.99 595.867 1175.86 599.001 1171.99 599.001H1037.99C1034.13 599.001 1030.99 595.867 1030.99 592.001V458.001C1030.99 454.135 1034.13 451.001 1037.99 451.001ZM1321.99 451.001H1187.99C1184.13 451.001 1180.99 454.135 1180.99 458.001V592.001C1180.99 595.867 1184.13 599.001 1187.99 599.001H1321.99C1325.86 599.001 1328.99 595.867 1328.99 592.001V458.001C1328.99 454.135 1325.86 451.001 1321.99 451.001ZM1337.99 451.001H1471.99C1475.86 451.001 1478.99 454.135 1478.99 458.001V592.001C1478.99 595.867 1475.86 599.001 1471.99 599.001H1337.99C1334.13 599.001 1330.99 595.867 1330.99 592.001V458.001C1330.99 454.135 1334.13 451.001 1337.99 451.001ZM121.992 601.001H-12.0078C-15.8738 601.001 -19.0078 604.135 -19.0078 608.001V742.001C-19.0078 745.867 -15.8738 749.001 -12.0078 749.001H121.992C125.858 749.001 128.992 745.867 128.992 742.001V608.001C128.992 604.135 125.858 601.001 121.992 601.001ZM137.992 601.001H271.992C275.858 601.001 278.992 604.135 278.992 608.001V742.001C278.992 745.867 275.858 749.001 271.992 749.001H137.992C134.126 749.001 130.992 745.867 130.992 742.001V608.001C130.992 604.135 134.126 601.001 137.992 601.001ZM421.992 601.001H287.992C284.126 601.001 280.992 604.135 280.992 608.001V742.001C280.992 745.867 284.126 749.001 287.992 749.001H421.992C425.858 749.001 428.992 745.867 428.992 742.001V608.001C428.992 604.135 425.858 601.001 421.992 601.001ZM437.992 601.001H571.992C575.858 601.001 578.992 604.135 578.992 608.001V742.001C578.992 745.867 575.858 749.001 571.992 749.001H437.992C434.126 749.001 430.992 745.867 430.992 742.001V608.001C430.992 604.135 434.126 601.001 437.992 601.001ZM721.992 601.001H587.992C584.126 601.001 580.992 604.135 580.992 608.001V742.001C580.992 745.867 584.126 749.001 587.992 749.001H721.992C725.858 749.001 728.992 745.867 728.992 742.001V608.001C728.992 604.135 725.858 601.001 721.992 601.001ZM737.992 601.001H871.992C875.858 601.001 878.992 604.135 878.992 608.001V742.001C878.992 745.867 875.858 749.001 871.992 749.001H737.992C734.126 749.001 730.992 745.867 730.992 742.001V608.001C730.992 604.135 734.126 601.001 737.992 601.001ZM1021.99 601.001H887.992C884.126 601.001 880.992 604.135 880.992 608.001V742.001C880.992 745.867 884.126 749.001 887.992 749.001H1021.99C1025.86 749.001 1028.99 745.867 1028.99 742.001V608.001C1028.99 604.135 1025.86 601.001 1021.99 601.001ZM1037.99 601.001H1171.99C1175.86 601.001 1178.99 604.135 1178.99 608.001V742.001C1178.99 745.867 1175.86 749.001 1171.99 749.001H1037.99C1034.13 749.001 1030.99 745.867 1030.99 742.001V608.001C1030.99 604.135 1034.13 601.001 1037.99 601.001ZM1321.99 601.001H1187.99C1184.13 601.001 1180.99 604.135 1180.99 608.001V742.001C1180.99 745.867 1184.13 749.001 1187.99 749.001H1321.99C1325.86 749.001 1328.99 745.867 1328.99 742.001V608.001C1328.99 604.135 1325.86 601.001 1321.99 601.001ZM1337.99 601.001H1471.99C1475.86 601.001 1478.99 604.135 1478.99 608.001V742.001C1478.99 745.867 1475.86 749.001 1471.99 749.001H1337.99C1334.13 749.001 1330.99 745.867 1330.99 742.001V608.001C1330.99 604.135 1334.13 601.001 1337.99 601.001ZM121.992 751.001H-12.0078C-15.8738 751.001 -19.0078 754.135 -19.0078 758.001V892.001C-19.0078 895.867 -15.8738 899.001 -12.0078 899.001H121.992C125.858 899.001 128.992 895.867 128.992 892.001V758.001C128.992 754.135 125.858 751.001 121.992 751.001ZM137.992 751.001H271.992C275.858 751.001 278.992 754.135 278.992 758.001V892.001C278.992 895.867 275.858 899.001 271.992 899.001H137.992C134.126 899.001 130.992 895.867 130.992 892.001V758.001C130.992 754.135 134.126 751.001 137.992 751.001ZM421.992 751.001H287.992C284.126 751.001 280.992 754.135 280.992 758.001V892.001C280.992 895.867 284.126 899.001 287.992 899.001H421.992C425.858 899.001 428.992 895.867 428.992 892.001V758.001C428.992 754.135 425.858 751.001 421.992 751.001ZM437.992 751.001H571.992C575.858 751.001 578.992 754.135 578.992 758.001V892.001C578.992 895.867 575.858 899.001 571.992 899.001H437.992C434.126 899.001 430.992 895.867 430.992 892.001V758.001C430.992 754.135 434.126 751.001 437.992 751.001ZM721.992 751.001H587.992C584.126 751.001 580.992 754.135 580.992 758.001V892.001C580.992 895.867 584.126 899.001 587.992 899.001H721.992C725.858 899.001 728.992 895.867 728.992 892.001V758.001C728.992 754.135 725.858 751.001 721.992 751.001ZM737.992 751.001H871.992C875.858 751.001 878.992 754.135 878.992 758.001V892.001C878.992 895.867 875.858 899.001 871.992 899.001H737.992C734.126 899.001 730.992 895.867 730.992 892.001V758.001C730.992 754.135 734.126 751.001 737.992 751.001ZM1021.99 751.001H887.992C884.126 751.001 880.992 754.135 880.992 758.001V892.001C880.992 895.867 884.126 899.001 887.992 899.001H1021.99C1025.86 899.001 1028.99 895.867 1028.99 892.001V758.001C1028.99 754.135 1025.86 751.001 1021.99 751.001ZM1037.99 751.001H1171.99C1175.86 751.001 1178.99 754.135 1178.99 758.001V892.001C1178.99 895.867 1175.86 899.001 1171.99 899.001H1037.99C1034.13 899.001 1030.99 895.867 1030.99 892.001V758.001C1030.99 754.135 1034.13 751.001 1037.99 751.001ZM1321.99 751.001H1187.99C1184.13 751.001 1180.99 754.135 1180.99 758.001V892.001C1180.99 895.867 1184.13 899.001 1187.99 899.001H1321.99C1325.86 899.001 1328.99 895.867 1328.99 892.001V758.001C1328.99 754.135 1325.86 751.001 1321.99 751.001ZM1337.99 751.001H1471.99C1475.86 751.001 1478.99 754.135 1478.99 758.001V892.001C1478.99 895.867 1475.86 899.001 1471.99 899.001H1337.99C1334.13 899.001 1330.99 895.867 1330.99 892.001V758.001C1330.99 754.135 1334.13 751.001 1337.99 751.001Z" fill="url(#paint0_radial_241_12914)"/>
<defs>
<radialGradient id="paint0_radial_241_12914" cx="0" cy="0" r="1" gradientUnits="userSpaceOnUse" gradientTransform="translate(729.992 450.001) rotate(90) scale(450 750)">
<stop stop-color="white" stop-opacity="0.1"/>
<stop offset="1" stop-color="white" stop-opacity="0"/>
</radialGradient>
</defs>
</svg>
