<svg xmlns="http://www.w3.org/2000/svg" width="994" height="890" viewBox="0 0 994 890" fill="none"><mask id="mask0_1_622" style="mask-type:alpha" maskUnits="userSpaceOnUse" x="0" y="0" width="994" height="890"><rect x="0.304688" width="993.394" height="890" fill="#093537"></rect></mask><g mask="url(#mask0_1_622)"><path d="M313.88 -44.0944C313.88 103.187 194.686 222.346 47.9456 222.346C-98.7952 222.346 -217.988 103.187 -217.988 -44.0944C-217.988 -191.376 -98.7952 -310.535 47.9456 -310.535C194.686 -310.535 313.88 -191.376 313.88 -44.0944Z" stroke="url(#paint0_linear_1_622)" stroke-width="200"></path><path d="M600.746 -45.6152C600.746 259.202 353.856 506.173 49.4649 506.173C-254.926 506.173 -501.816 259.202 -501.816 -45.6152C-501.816 -350.433 -254.926 -597.403 49.4649 -597.403C353.856 -597.403 600.746 -350.433 600.746 -45.6152Z" stroke="url(#paint1_linear_1_622)" stroke-width="200"></path><circle cx="48.452" cy="-44.0944" r="831.054" stroke="url(#paint2_linear_1_622)" stroke-width="200"></circle></g><defs><linearGradient id="paint0_linear_1_622" x1="47.9456" y1="-410.535" x2="47.9456" y2="322.346" gradientUnits="userSpaceOnUse"><stop stop-color="#A0DDE1" stop-opacity="0.38"></stop><stop offset="1" stop-color="#A0DDE1" stop-opacity="0"></stop></linearGradient><linearGradient id="paint1_linear_1_622" x1="49.4649" y1="-697.403" x2="49.4649" y2="606.173" gradientUnits="userSpaceOnUse"><stop stop-color="#A0DDE1" stop-opacity="0.38"></stop><stop offset="1" stop-color="#A0DDE1" stop-opacity="0"></stop></linearGradient><linearGradient id="paint2_linear_1_622" x1="48.452" y1="-975.148" x2="48.452" y2="886.959" gradientUnits="userSpaceOnUse"><stop stop-color="#A0DDE1" stop-opacity="0.38"></stop><stop offset="1" stop-color="#A0DDE1" stop-opacity="0"></stop></linearGradient></defs></svg>